<svg width="262" height="32" viewBox="0 0 262 32" fill="none" xmlns="http://www.w3.org/2000/svg">
<path d="M41.7758 24.7742V7.43226H44.2943V24.7742H41.7758Z" fill="#CAD8CE"/>
<path d="M50.288 24.7742V7.43226H54.0059L60.8419 20.9342H61.3216V7.43226H63.8402V24.7742H60.1223L53.2863 11.2723H52.8066V24.7742H50.288Z" fill="#CAD8CE"/>
<path d="M72.3515 22.2968H75.7096C77.2926 22.2968 78.6039 21.727 79.6433 20.5874C80.6987 19.4312 81.2264 17.9365 81.2264 16.1032C81.2264 14.2699 80.6987 12.7835 79.6433 11.6439C78.6039 10.4877 77.2926 9.90968 75.7096 9.90968H72.3515V22.2968ZM69.833 24.7742V7.43226H75.7096C77.9962 7.43226 79.9071 8.24981 81.4422 9.8849C82.9773 11.52 83.7449 13.5928 83.7449 16.1032C83.7449 18.6137 82.9773 20.6865 81.4422 22.3215C79.9071 23.9566 77.9962 24.7742 75.7096 24.7742H69.833Z" fill="#CAD8CE"/>
<path d="M102.051 22.5197C100.5 24.1879 98.597 25.0219 96.3423 25.0219C94.0876 25.0219 92.1847 24.1879 90.6336 22.5197C89.0825 20.8516 88.3069 18.7128 88.3069 16.1032C88.3069 13.4937 89.0825 11.3548 90.6336 9.68671C92.1847 8.01858 94.0876 7.18451 96.3423 7.18451C98.597 7.18451 100.5 8.01858 102.051 9.68671C103.602 11.3548 104.378 13.4937 104.378 16.1032C104.378 18.7128 103.602 20.8516 102.051 22.5197ZM100.3 11.4209C99.2606 10.2483 97.9414 9.66193 96.3423 9.66193C94.7432 9.66193 93.424 10.2483 92.3846 11.4209C91.3452 12.5935 90.8255 14.1543 90.8255 16.1032C90.8255 18.0521 91.3452 19.6129 92.3846 20.7855C93.424 21.9582 94.7432 22.5445 96.3423 22.5445C97.9414 22.5445 99.2606 21.9582 100.3 20.7855C101.339 19.6129 101.859 18.0521 101.859 16.1032C101.859 14.1543 101.339 12.5935 100.3 11.4209Z" fill="#CAD8CE"/>
<path d="M121.882 18.8284H124.52C124.36 19.5551 124.089 20.2653 123.705 20.959C123.337 21.6526 122.849 22.3133 122.242 22.9409C121.634 23.5685 120.874 24.0723 119.963 24.4521C119.052 24.832 118.052 25.0219 116.965 25.0219C114.71 25.0219 112.807 24.1879 111.256 22.5197C109.705 20.8516 108.929 18.7128 108.929 16.1032C108.929 13.4937 109.705 11.3548 111.256 9.68671C112.807 8.01858 114.71 7.18451 116.965 7.18451C118.948 7.18451 120.603 7.7791 121.93 8.96826C123.273 10.1409 124.137 11.5695 124.52 13.2542H121.882C121.466 12.0981 120.818 11.2144 119.939 10.6034C119.059 9.97574 118.068 9.66193 116.965 9.66193C115.366 9.66193 114.046 10.2483 113.007 11.4209C111.968 12.5935 111.448 14.1543 111.448 16.1032C111.448 18.0521 111.968 19.6129 113.007 20.7855C114.046 21.9582 115.366 22.5445 116.965 22.5445C118.244 22.5445 119.299 22.1894 120.131 21.4792C120.978 20.7525 121.562 19.8689 121.882 18.8284Z" fill="#CAD8CE"/>
<path d="M142.593 22.5197C141.042 24.1879 139.139 25.0219 136.884 25.0219C134.63 25.0219 132.727 24.1879 131.176 22.5197C129.625 20.8516 128.849 18.7128 128.849 16.1032C128.849 13.4937 129.625 11.3548 131.176 9.68671C132.727 8.01858 134.63 7.18451 136.884 7.18451C139.139 7.18451 141.042 8.01858 142.593 9.68671C144.144 11.3548 144.92 13.4937 144.92 16.1032C144.92 18.7128 144.144 20.8516 142.593 22.5197ZM140.842 11.4209C139.803 10.2483 138.483 9.66193 136.884 9.66193C135.285 9.66193 133.966 10.2483 132.927 11.4209C131.887 12.5935 131.368 14.1543 131.368 16.1032C131.368 18.0521 131.887 19.6129 132.927 20.7855C133.966 21.9582 135.285 22.5445 136.884 22.5445C138.483 22.5445 139.803 21.9582 140.842 20.7855C141.882 19.6129 142.401 18.0521 142.401 16.1032C142.401 14.1543 141.882 12.5935 140.842 11.4209Z" fill="#CAD8CE"/>
<path d="M162.424 18.8284H165.062C164.903 19.5551 164.631 20.2653 164.247 20.959C163.879 21.6526 163.391 22.3133 162.784 22.9409C162.176 23.5685 161.417 24.0723 160.505 24.4521C159.594 24.832 158.594 25.0219 157.507 25.0219C155.252 25.0219 153.349 24.1879 151.798 22.5197C150.247 20.8516 149.471 18.7128 149.471 16.1032C149.471 13.4937 150.247 11.3548 151.798 9.68671C153.349 8.01858 155.252 7.18451 157.507 7.18451C159.49 7.18451 161.145 7.7791 162.472 8.96826C163.815 10.1409 164.679 11.5695 165.062 13.2542H162.424C162.008 12.0981 161.361 11.2144 160.481 10.6034C159.602 9.97574 158.61 9.66193 157.507 9.66193C155.908 9.66193 154.589 10.2483 153.549 11.4209C152.51 12.5935 151.99 14.1543 151.99 16.1032C151.99 18.0521 152.51 19.6129 153.549 20.7855C154.589 21.9582 155.908 22.5445 157.507 22.5445C158.786 22.5445 159.841 22.1894 160.673 21.4792C161.521 20.7525 162.104 19.8689 162.424 18.8284Z" fill="#CAD8CE"/>
<path d="M183.135 22.5197C181.584 24.1879 179.681 25.0219 177.427 25.0219C175.172 25.0219 173.269 24.1879 171.718 22.5197C170.167 20.8516 169.391 18.7128 169.391 16.1032C169.391 13.4937 170.167 11.3548 171.718 9.68671C173.269 8.01858 175.172 7.18451 177.427 7.18451C179.681 7.18451 181.584 8.01858 183.135 9.68671C184.686 11.3548 185.462 13.4937 185.462 16.1032C185.462 18.7128 184.686 20.8516 183.135 22.5197ZM181.384 11.4209C180.345 10.2483 179.026 9.66193 177.427 9.66193C175.827 9.66193 174.508 10.2483 173.469 11.4209C172.429 12.5935 171.91 14.1543 171.91 16.1032C171.91 18.0521 172.429 19.6129 173.469 20.7855C174.508 21.9582 175.827 22.5445 177.427 22.5445C179.026 22.5445 180.345 21.9582 181.384 20.7855C182.424 19.6129 182.943 18.0521 182.943 16.1032C182.943 14.1543 182.424 12.5935 181.384 11.4209Z" fill="#CAD8CE"/>
<path d="M194.222 24.7742V9.90968H188.945V7.43226H202.018V9.90968H196.741V24.7742H194.222Z" fill="#CAD8CE"/>
<path d="M203.466 24.7742L209.583 7.43226H213.421L219.537 24.7742H216.779L215.34 20.6864H207.664L206.225 24.7742H203.466ZM208.504 18.3329H214.5L211.742 10.4052H211.262L208.504 18.3329Z" fill="#CAD8CE"/>
<path d="M223.733 24.7742V7.43226H228.05L232.488 21.0581H232.967L237.405 7.43226H241.722V24.7742H239.204V11.52H238.724L234.407 24.7742H231.049L226.731 11.52H226.251V24.7742H223.733Z" fill="#CAD8CE"/>
<path d="M245.929 24.7742L252.046 7.43226H255.884L262 24.7742H259.242L257.802 20.6864H250.127L248.688 24.7742H245.929ZM250.966 18.3329H256.963L254.205 10.4052H253.725L250.966 18.3329Z" fill="#CAD8CE"/>
<path d="M15.332 0C6.86437 0 0 7.16344 0 16C0 24.8366 6.86437 32 15.332 32V28.16C8.89662 28.16 3.67969 22.7158 3.67969 16C3.67969 9.28422 8.89662 3.84 15.332 3.84V0Z" fill="#CAD8CE"/>
<path d="M15.332 28.16C21.7674 28.16 26.9844 22.7158 26.9844 16C26.9844 9.28422 21.7674 3.84 15.332 3.84L15.332 6.75837C20.2229 6.75838 24.1878 10.896 24.1878 16C24.1878 21.104 20.2229 25.2415 15.332 25.2416V28.16Z" fill="#CAD8CE"/>
</svg>
